<svg xmlns="http://www.w3.org/2000/svg" version="1.1" xmlns:xlink="http://www.w3.org/1999/xlink" width="512" height="512" x="0" y="0" viewBox="0 0 48 48" style="enable-background:new 0 0 512 512" xml:space="preserve" class=""><g><path d="M21 25c0-1.654-1.346-3-3-3s-3 1.346-3 3 1.346 3 3 3 3-1.346 3-3zm-3 1a1.001 1.001 0 0 1 0-2c.551 0 1 .449 1 1s-.449 1-1 1zM30 22c-1.654 0-3 1.346-3 3s1.346 3 3 3 3-1.346 3-3-1.346-3-3-3zm0 4a1.001 1.001 0 0 1 0-2c.551 0 1 .449 1 1s-.449 1-1 1zM28.543 33.91c-2.815 1.447-6.271 1.447-9.086 0a1 1 0 1 0-.914 1.78c1.669.857 3.556 1.311 5.457 1.311s3.788-.453 5.457-1.311a1.001 1.001 0 0 0-.914-1.78z" fill="#006BFF" opacity="1" data-original="#000000" class=""></path><path d="M45 22h-3v-3c0-2.757-2.243-5-5-5H25V9.858c1.72-.447 3-2 3-3.858 0-2.206-1.794-4-4-4s-4 1.794-4 4c0 1.858 1.28 3.411 3 3.858V14H11c-2.757 0-5 2.243-5 5v3H3c-1.654 0-3 1.346-3 3v9c0 1.654 1.346 3 3 3h3v3c0 2.757 2.243 5 5 5h26c2.757 0 5-2.243 5-5v-3h3c1.654 0 3-1.346 3-3v-9c0-1.654-1.346-3-3-3zM22 6c0-1.103.897-2 2-2s2 .897 2 2-.897 2-2 2-2-.897-2-2zM3 35c-.551 0-1-.448-1-1v-9c0-.551.449-1 1-1h3v11zm37 5c0 1.654-1.346 3-3 3H11c-1.654 0-3-1.346-3-3V19c0-1.654 1.346-3 3-3h26c1.654 0 3 1.346 3 3zm6-6c0 .552-.449 1-1 1h-3V24h3c.551 0 1 .449 1 1z" fill="#006BFF" opacity="1" data-original="#000000" class=""></path></g></svg>